<svg height="4078" width="720" xmlns="http://www.w3.org/2000/svg">
<rect height="4078" fill="#555" width="720"></rect>
<text fill="#7f7" font-family="Courier New" font-size="12" xml:space="preserve">
<tspan x="10" y="26">2016-10-13 18:34:47 +0800</tspan>
<tspan x="10" y="42">rename crudRemoveMany</tspan>
<tspan x="10" y="58"></tspan>
<tspan x="10" y="74">2016-10-13 18:28:18 +0800</tspan>
<tspan x="10" y="90">rename crudFindOne</tspan>
<tspan x="10" y="106"></tspan>
<tspan x="10" y="122">2016-10-13 18:13:02 +0800</tspan>
<tspan x="10" y="138">rename _DbTable</tspan>
<tspan x="10" y="154"></tspan>
<tspan x="10" y="170">2016-10-13 16:33:30 +0800</tspan>
<tspan x="10" y="186">fix index</tspan>
<tspan x="10" y="202"></tspan>
<tspan x="10" y="218">2016-10-13 12:52:24 +0800</tspan>
<tspan x="10" y="234">methodize dbTableDrop</tspan>
<tspan x="10" y="250"></tspan>
<tspan x="10" y="266">2016-10-13 01:37:21 +0800</tspan>
<tspan x="10" y="282">fix npm test</tspan>
<tspan x="10" y="298"></tspan>
<tspan x="10" y="314">2016-10-13 01:01:20 +0800</tspan>
<tspan x="10" y="330">- add 'hide internal test' button to demo</tspan>
<tspan x="10" y="346"></tspan>
<tspan x="10" y="362">2016-10-12 18:22:05 +0800</tspan>
<tspan x="10" y="378">cleanup</tspan>
<tspan x="10" y="394"></tspan>
<tspan x="10" y="410">2016-10-12 16:32:16 +0800</tspan>
<tspan x="10" y="426">remove db* from utility2</tspan>
<tspan x="10" y="442"></tspan>
<tspan x="10" y="458">2016-10-11 23:13:42 +0800</tspan>
<tspan x="10" y="474">cull ensureIndex</tspan>
<tspan x="10" y="490"></tspan>
<tspan x="10" y="506">2016-10-11 22:59:22 +0800</tspan>
<tspan x="10" y="522">countMany</tspan>
<tspan x="10" y="538"></tspan>
<tspan x="10" y="554">2016-10-11 20:39:38 +0800</tspan>
<tspan x="10" y="570">removeOne</tspan>
<tspan x="10" y="586"></tspan>
<tspan x="10" y="602">2016-10-11 20:22:44 +0800</tspan>
<tspan x="10" y="618">rename delete to remove</tspan>
<tspan x="10" y="634"></tspan>
<tspan x="10" y="650">2016-10-11 20:16:08 +0800</tspan>
<tspan x="10" y="666">rename delete to remove</tspan>
<tspan x="10" y="682"></tspan>
<tspan x="10" y="698">2016-10-11 17:40:50 +0800</tspan>
<tspan x="10" y="714">rename Nedb to nedb (all lowercase)</tspan>
<tspan x="10" y="730"></tspan>
<tspan x="10" y="746">2016-10-11 16:57:40 +0800</tspan>
<tspan x="10" y="762">delegate auto-create unique-key to nedb</tspan>
<tspan x="10" y="778"></tspan>
<tspan x="10" y="794">2016-10-11 15:37:18 +0800</tspan>
<tspan x="10" y="810">update ensureIndexList</tspan>
<tspan x="10" y="826"></tspan>
<tspan x="10" y="842">2016-10-11 02:31:24 +0800</tspan>
<tspan x="10" y="858">update nedb</tspan>
<tspan x="10" y="874"></tspan>
<tspan x="10" y="890">2016-10-11 00:24:51 +0800</tspan>
<tspan x="10" y="906">fix npm test</tspan>
<tspan x="10" y="922"></tspan>
<tspan x="10" y="938">2016-10-11 00:22:16 +0800</tspan>
<tspan x="10" y="954">fix npm test</tspan>
<tspan x="10" y="970"></tspan>
<tspan x="10" y="986">2016-10-10 23:03:22 +0800</tspan>
<tspan x="10" y="1002">cull AvlTree.prototype</tspan>
<tspan x="10" y="1018"></tspan>
<tspan x="10" y="1034">2016-10-10 21:24:25 +0800</tspan>
<tspan x="10" y="1050">improve test-coverage</tspan>
<tspan x="10" y="1066"></tspan>
<tspan x="10" y="1082">2016-10-10 11:59:50 +0800</tspan>
<tspan x="10" y="1098">cull callback</tspan>
<tspan x="10" y="1114"></tspan>
<tspan x="10" y="1130">2016-10-10 07:29:59 +0800</tspan>
<tspan x="10" y="1146">touch</tspan>
<tspan x="10" y="1162"></tspan>
<tspan x="10" y="1178">2016-10-10 02:23:21 +0800</tspan>
<tspan x="10" y="1194">update nedb</tspan>
<tspan x="10" y="1210"></tspan>
<tspan x="10" y="1226">2016-10-09 23:27:35 +0800</tspan>
<tspan x="10" y="1242">revamp onNext</tspan>
<tspan x="10" y="1258"></tspan>
<tspan x="10" y="1274">2016-10-09 23:24:16 +0800</tspan>
<tspan x="10" y="1290">revamp onNext</tspan>
<tspan x="10" y="1306"></tspan>
<tspan x="10" y="1322">2016-10-09 23:21:12 +0800</tspan>
<tspan x="10" y="1338">streamline tests</tspan>
<tspan x="10" y="1354"></tspan>
<tspan x="10" y="1370">2016-10-09 23:15:49 +0800</tspan>
<tspan x="10" y="1386">streamline tests</tspan>
<tspan x="10" y="1402"></tspan>
<tspan x="10" y="1418">2016-10-09 23:11:55 +0800</tspan>
<tspan x="10" y="1434">- streamline tests</tspan>
<tspan x="10" y="1450"></tspan>
<tspan x="10" y="1466">2016-10-02 12:04:31 +0800</tspan>
<tspan x="10" y="1482">- npm publish 2016.9.1</tspan>
<tspan x="10" y="1498">- update utility2 dependency</tspan>
<tspan x="10" y="1514"></tspan>
<tspan x="10" y="1530">2016-08-27 11:05:16 +0800</tspan>
<tspan x="10" y="1546">- npm publish 2016.8.1</tspan>
<tspan x="10" y="1562">- allow file export / import of nedb-database</tspan>
<tspan x="10" y="1578">- migrate nedb-api from swagger-lite to utility2</tspan>
<tspan x="10" y="1594">- rename collectDoc to dbRow and collection to dbTable</tspan>
<tspan x="10" y="1610"></tspan>
<tspan x="10" y="1626">2016-08-07 22:39:06 +0200</tspan>
<tspan x="10" y="1642">- npm publish 2016.7.2</tspan>
<tspan x="10" y="1658">- deploy standalone-app to heroku</tspan>
<tspan x="10" y="1674">- rename local.utility2.middlewareJsonpStateGet to local.utility2.middlewareJsonpStateInit</tspan>
<tspan x="10" y="1690"></tspan>
<tspan x="10" y="1706">2016-07-31 15:02:39 +0200</tspan>
<tspan x="10" y="1722">- npm publish 2016.7.1</tspan>
<tspan x="10" y="1738">- replace lib bcrypt and lib cryptojs with lib sjcl</tspan>
<tspan x="10" y="1754"></tspan>
<tspan x="10" y="1770">2016-07-01 03:17:59 +0200</tspan>
<tspan x="10" y="1786">- npm publish 2016.5.4</tspan>
<tspan x="10" y="1802">- fix internal tests for heroku backend</tspan>
<tspan x="10" y="1818"></tspan>
<tspan x="10" y="1834">2016-06-15 17:19:02 +0300</tspan>
<tspan x="10" y="1850">- npm publish 2016.5.2</tspan>
<tspan x="10" y="1866">- deploy standalone app to heroku test-server</tspan>
<tspan x="10" y="1882">- remove nedb-lite dependency</tspan>
<tspan x="10" y="1898">- add minified asset assets.app.min.js</tspan>
<tspan x="10" y="1914">- add 'run internal test' button in webpage</tspan>
<tspan x="10" y="1930">- add env var npm_config_mode_backend to disable utility2.serverLocalUrlTest</tspan>
<tspan x="10" y="1946"></tspan>
<tspan x="10" y="1962">2016-06-12 03:58:24 +0300</tspan>
<tspan x="10" y="1978">- npm publish 2016.5.2</tspan>
<tspan x="10" y="1994">- add standalone-app download-link in test-page</tspan>
<tspan x="10" y="2010">- ui - add button to reset nedb database</tspan>
<tspan x="10" y="2026"></tspan>
<tspan x="10" y="2042">2016-06-08 19:00:37 +0300</tspan>
<tspan x="10" y="2058">- npm publish 2016.5.1</tspan>
<tspan x="10" y="2074">- merge admin-ui into swagger-ui</tspan>
<tspan x="10" y="2090">- ui - re-implement reload feature</tspan>
<tspan x="10" y="2106">- move all swagger-backend-config into top-level swagger-property 'x-swgg-apiDict'</tspan>
<tspan x="10" y="2122">- remove unused postinstall script</tspan>
<tspan x="10" y="2138"></tspan>
<tspan x="10" y="2154">2016-05-30 15:00:02 +0300</tspan>
<tspan x="10" y="2170">- npm publish 2016.4.3</tspan>
<tspan x="10" y="2186">- datatable - add datatable resource-view</tspan>
<tspan x="10" y="2202">- datatable - add pagination</tspan>
<tspan x="10" y="2218">- datatable - add row deletion</tspan>
<tspan x="10" y="2234"></tspan>
<tspan x="10" y="2250">2016-05-20 17:44:04 +0300</tspan>
<tspan x="10" y="2266">- npm publish 2016.4.2</tspan>
<tspan x="10" y="2282">- replace swagger-tools dependency with function swgg.validateBySwagger</tspan>
<tspan x="10" y="2298">- validation - validate schema.default</tspan>
<tspan x="10" y="2314">- validation - validate schema.anyOf</tspan>
<tspan x="10" y="2330">- validation - replace x-swgg-inherit with schema.allOf</tspan>
<tspan x="10" y="2346">- rename operation crudFile* to file*</tspan>
<tspan x="10" y="2362">- rename operation crudUser* to user*</tspan>
<tspan x="10" y="2378">- add file lib.swagger.schema.json from http://swagger.io/v2/schema.json</tspan>
<tspan x="10" y="2394">- add extra constraints to function swgg.collectDocListRandomCreate</tspan>
<tspan x="10" y="2410">- ui - input element's valueEncoded can only be '', null, or undefined</tspan>
<tspan x="10" y="2426">- replace function swgg.schemaDereference with swgg.schemaNormalize</tspan>
<tspan x="10" y="2442"></tspan>
<tspan x="10" y="2458">2016-05-12 21:06:05 +0300</tspan>
<tspan x="10" y="2474">- npm publish 2016.4.1</tspan>
<tspan x="10" y="2490">- fix bug when a document's id is zero</tspan>
<tspan x="10" y="2506">- streamline ui</tspan>
<tspan x="10" y="2522">- remove Backbone, Handlebars, and jQuery dependencies from lib.swagger-ui.js</tspan>
<tspan x="10" y="2538">- enable multiple api endpoints with same operationId, but unique keyUnique</tspan>
<tspan x="10" y="2554">- add hooks middlewareCrudPre and middlewareCrudPost</tspan>
<tspan x="10" y="2570">- merge api crudCreateOrReplaceOne into crudCreateOrReplaceOneByKeyUnique</tspan>
<tspan x="10" y="2586">- merge api crudCreateOrUpdateOne and crudCreateOrUpdateOneByKeyUnique into crudUpdateOneByKeyUn\</tspan>
<tspan x="10" y="2602">ique</tspan>
<tspan x="10" y="2618"></tspan>
<tspan x="10" y="2634">2016-04-28 13:18:23 +0300</tspan>
<tspan x="10" y="2650">- npm publish 2016.3.1</tspan>
<tspan x="10" y="2666">- implement api GET /user/login</tspan>
<tspan x="10" y="2682">- implement api GET /user/logout</tspan>
<tspan x="10" y="2698">- add api crudUserLogout</tspan>
<tspan x="10" y="2714">- encode arrays as json-string in query-param</tspan>
<tspan x="10" y="2730">- fix crudFileGetOneByKeyUnique for serverLocal</tspan>
<tspan x="10" y="2746">- fix 0 statusCode in userLoginByPassword and userLogout api</tspan>
<tspan x="10" y="2762">- remove external dependency animate.css</tspan>
<tspan x="10" y="2778"></tspan>
<tspan x="10" y="2794">2016-04-20 01:32:39 +0300</tspan>
<tspan x="10" y="2810">- npm publish 2016.2.3</tspan>
<tspan x="10" y="2826">- split swgg.middlewareValidate into swgg.middlewareRouter and swgg.middlewareValidate</tspan>
<tspan x="10" y="2842">- merge collection BuiltinFile into collection TestModelCrud in example.js</tspan>
<tspan x="10" y="2858">- merge collection BuiltinUser into collection User in example.js</tspan>
<tspan x="10" y="2874">- add 'multipleOf' number-constraint to function swgg.collectDocRandomCreate</tspan>
<tspan x="10" y="2890">- add function swgg.collectDocListRandomCreate</tspan>
<tspan x="10" y="2906"></tspan>
<tspan x="10" y="2922">2016-04-03 18:55:13 +0800</tspan>
<tspan x="10" y="2938">- npm publish 2016.2.2</tspan>
<tspan x="10" y="2954">- implement api POST /pet/{petId}/uploadImage</tspan>
<tspan x="10" y="2970">- fix Uncaught TypeError: this.trigger is not a function</tspan>
<tspan x="10" y="2986">- fix curl example missing body</tspan>
<tspan x="10" y="3002">- add multipart/form-data ability to swgg.apiAjax</tspan>
<tspan x="10" y="3018">- add function swgg.collectDocRandomCreate to create random collectDoc</tspan>
<tspan x="10" y="3034">- merge crudFileUploadOneByForm into crudFileUploadManyByForm</tspan>
<tspan x="10" y="3050">- add function swgg.urlBaseGet</tspan>
<tspan x="10" y="3066">- cover example.js</tspan>
<tspan x="10" y="3082"></tspan>
<tspan x="10" y="3098">2016-03-19 17:17:40 +0800</tspan>
<tspan x="10" y="3114">- npm publish 2016.2.1</tspan>
<tspan x="10" y="3130">- cleanup Backbone and Handlebars in lib.swagger-ui.js</tspan>
<tspan x="10" y="3146">- fix file-upload for serverLocal</tspan>
<tspan x="10" y="3162">- add function swgg.jwtEncodedDecodeAndDecrypt, swgg.nedbReset</tspan>
<tspan x="10" y="3178">- use rolled-up asset /assets.utility2.rollup.js</tspan>
<tspan x="10" y="3194">- move request.swgg* objects to namespace request.swgg</tspan>
<tspan x="10" y="3210"></tspan>
<tspan x="10" y="3226">2016-03-15 15:32:30 +0800</tspan>
<tspan x="10" y="3242">- npm publish 2016.1.6</tspan>
<tspan x="10" y="3258">- admin-ui - fix datatables crashing when rows are empty</tspan>
<tspan x="10" y="3274">- add api crudFileGetOneByKeyUnique, crudFileUploadManyByForm, crudFileUploadOneByForm</tspan>
<tspan x="10" y="3290">- add multipart/form-data handling in swgg.middlewareBodyParse</tspan>
<tspan x="10" y="3306">- allow jsonapi's response.data to be an empty array</tspan>
<tspan x="10" y="3322">- add '_Builtin' prefix to swagger-lite's builtin swagger-definition names</tspan>
<tspan x="10" y="3338">- do not send readonly properties in swgg.apiDict clients</tspan>
<tspan x="10" y="3354">- in swgg.validateByPropertyDef, add regex pattern validation according to http://json-schema.or\</tspan>
<tspan x="10" y="3370">g/latest/json-schema-validation.html#anchor33</tspan>
<tspan x="10" y="3386">- admin-ui add x-queryRange ui</tspan>
<tspan x="10" y="3402"></tspan>
<tspan x="10" y="3418">2016-03-09 00:16:59 +0800</tspan>
<tspan x="10" y="3434">- npm publish 2016.1.5</tspan>
<tspan x="10" y="3450">- admin-ui - fix input validation bugs</tspan>
<tspan x="10" y="3466">- replace swgg.api with swgg.apiDict</tspan>
<tspan x="10" y="3482"></tspan>
<tspan x="10" y="3498">2016-03-08 15:11:20 +0800</tspan>
<tspan x="10" y="3514">- consolidate browser state-init into jsonp call stateInit</tspan>
<tspan x="10" y="3530">- admin-ui - add swagger-form validation to form-inputs</tspan>
<tspan x="10" y="3546">- admin-ui - implement date-time/dropdown/boolean form-inputs</tspan>
<tspan x="10" y="3562">- admin-ui - integrate oauth-jwt user-login</tspan>
<tspan x="10" y="3578">- admin-ui - merge all dt state-info into swgg.dt object</tspan>
<tspan x="10" y="3594">- admin-ui - keyUnique crud operations can use arbitray keys, instead of only 'id' key</tspan>
<tspan x="10" y="3610">- admin-ui - add x-title option for rendering labels for swagger params and property inputs</tspan>
<tspan x="10" y="3626">- admin-ui - crud-keyUnique operations can depend on arbitrary unique-key (previously tied to 'i\</tspan>
<tspan x="10" y="3642">d' key)</tspan>
<tspan x="10" y="3658">- rename swgg.apiUpdate to swgg.apiDictUpdate</tspan>
<tspan x="10" y="3674">- flatten swgg.cacheDict into swgg</tspan>
<tspan x="10" y="3690"></tspan>
<tspan x="10" y="3706">2016-03-03 14:57:31 +0800</tspan>
<tspan x="10" y="3722">- npm publish 2016.1.4</tspan>
<tspan x="10" y="3738">- add function swgg.isNullOrUndefined</tspan>
<tspan x="10" y="3754">- add boolean/integer/number/string schema-properties as params in crudGetManyByQuery</tspan>
<tspan x="10" y="3770">- admin-ui - implement boolean/date-time/enum input types</tspan>
<tspan x="10" y="3786">- admin-ui - implement crud CREATE</tspan>
<tspan x="10" y="3802">- allow arbitrary name for body-param in local.swgg.middlewareCrud</tspan>
<tspan x="10" y="3818">- add 'x-notRequired' options to pathObject params to override 'required' option</tspan>
<tspan x="10" y="3834">- add 'x-validateUnusedDefinition' option in swgg.validateBySwagger to ignore unused definitions</tspan>
<tspan x="10" y="3850"></tspan>
<tspan x="10" y="3866">2016-02-29 19:54:22 +0800</tspan>
<tspan x="10" y="3882">- npm publish 2016.1.3</tspan>
<tspan x="10" y="3898">- add dependency nedb-lite</tspan>
<tspan x="10" y="3914">- admin-ui - integrate serverLocal into admin-ui</tspan>
<tspan x="10" y="3930">- use jsonp to init default browser-state instead of with hard-coded template</tspan>
<tspan x="10" y="3946">- split index.js into index.js and lib.admin-ui.js</tspan>
<tspan x="10" y="3962">- admin-ui - hook utility2.assert and utility2.onErrorDefault with bootstrap alert;</tspan>
<tspan x="10" y="3978">- admin-ui - add crud UPDATE</tspan>
<tspan x="10" y="3994">- admin-ui - show swagger-property-type in thead / tfoot / form input</tspan>
<tspan x="10" y="4010">- add keyAlias param in operationId</tspan>
<tspan x="10" y="4026">- swgg.apiUpdate will now error-log schema-validation-errors instead of throwing them</tspan>
<tspan x="10" y="4042">- add file-server</tspan>
<tspan x="10" y="4058">- add admin-ui crud DELETE</tspan>
</text>
</svg>
