<svg height="4398" width="720" xmlns="http://www.w3.org/2000/svg">
<rect height="4398" fill="#555" width="720"></rect>
<text fill="#7f7" font-family="Courier New" font-size="12" xml:space="preserve">
<tspan x="10" y="26">2016-10-14 19:40:49 +0800</tspan>
<tspan x="10" y="42">rename isInteger to integer</tspan>
<tspan x="10" y="58"></tspan>
<tspan x="10" y="74">2016-10-13 23:56:16 +0800</tspan>
<tspan x="10" y="90">- migrate from nedb-lite to db-lite</tspan>
<tspan x="10" y="106"></tspan>
<tspan x="10" y="122">2016-10-13 23:17:12 +0800</tspan>
<tspan x="10" y="138">- revamp nedb-lite dependency</tspan>
<tspan x="10" y="154"></tspan>
<tspan x="10" y="170">2016-10-09 23:11:55 +0800</tspan>
<tspan x="10" y="186">- streamline tests</tspan>
<tspan x="10" y="202"></tspan>
<tspan x="10" y="218">2016-10-02 12:04:31 +0800</tspan>
<tspan x="10" y="234">- npm publish 2016.9.1</tspan>
<tspan x="10" y="250">- update utility2 dependency</tspan>
<tspan x="10" y="266"></tspan>
<tspan x="10" y="282">2016-08-27 11:05:16 +0800</tspan>
<tspan x="10" y="298">- npm publish 2016.8.1</tspan>
<tspan x="10" y="314">- allow file export / import of nedb-database</tspan>
<tspan x="10" y="330">- migrate nedb-api from swagger-lite to utility2</tspan>
<tspan x="10" y="346">- rename collectDoc to dbRow and collection to dbTable</tspan>
<tspan x="10" y="362"></tspan>
<tspan x="10" y="378">2016-08-07 22:39:06 +0200</tspan>
<tspan x="10" y="394">- npm publish 2016.7.2</tspan>
<tspan x="10" y="410">- deploy standalone-app to heroku</tspan>
<tspan x="10" y="426">- rename local.utility2.middlewareJsonpStateGet to local.utility2.middlewareJsonpStateInit</tspan>
<tspan x="10" y="442"></tspan>
<tspan x="10" y="458">2016-07-31 15:02:39 +0200</tspan>
<tspan x="10" y="474">- npm publish 2016.7.1</tspan>
<tspan x="10" y="490">- replace lib bcrypt and lib cryptojs with lib sjcl</tspan>
<tspan x="10" y="506"></tspan>
<tspan x="10" y="522">2016-07-01 03:17:59 +0200</tspan>
<tspan x="10" y="538">- npm publish 2016.5.4</tspan>
<tspan x="10" y="554">- fix internal tests for heroku backend</tspan>
<tspan x="10" y="570"></tspan>
<tspan x="10" y="586">2016-06-15 17:19:02 +0300</tspan>
<tspan x="10" y="602">- npm publish 2016.5.2</tspan>
<tspan x="10" y="618">- deploy standalone app to heroku test-server</tspan>
<tspan x="10" y="634">- remove nedb-lite dependency</tspan>
<tspan x="10" y="650">- add minified asset assets.app.min.js</tspan>
<tspan x="10" y="666">- add 'run internal test' button in webpage</tspan>
<tspan x="10" y="682">- add env var npm_config_mode_backend to disable utility2.serverLocalUrlTest</tspan>
<tspan x="10" y="698"></tspan>
<tspan x="10" y="714">2016-06-12 03:58:24 +0300</tspan>
<tspan x="10" y="730">- npm publish 2016.5.2</tspan>
<tspan x="10" y="746">- add standalone-app download-link in test-page</tspan>
<tspan x="10" y="762">- ui - add button to reset nedb database</tspan>
<tspan x="10" y="778"></tspan>
<tspan x="10" y="794">2016-06-08 19:00:37 +0300</tspan>
<tspan x="10" y="810">- npm publish 2016.5.1</tspan>
<tspan x="10" y="826">- merge admin-ui into swagger-ui</tspan>
<tspan x="10" y="842">- ui - re-implement reload feature</tspan>
<tspan x="10" y="858">- move all swagger-backend-config into top-level swagger-property 'x-swgg-apiDict'</tspan>
<tspan x="10" y="874">- remove unused postinstall script</tspan>
<tspan x="10" y="890"></tspan>
<tspan x="10" y="906">2016-05-30 15:00:02 +0300</tspan>
<tspan x="10" y="922">- npm publish 2016.4.3</tspan>
<tspan x="10" y="938">- datatable - add datatable resource-view</tspan>
<tspan x="10" y="954">- datatable - add pagination</tspan>
<tspan x="10" y="970">- datatable - add row deletion</tspan>
<tspan x="10" y="986"></tspan>
<tspan x="10" y="1002">2016-05-20 17:44:04 +0300</tspan>
<tspan x="10" y="1018">- npm publish 2016.4.2</tspan>
<tspan x="10" y="1034">- replace swagger-tools dependency with function swgg.validateBySwagger</tspan>
<tspan x="10" y="1050">- validation - validate schema.default</tspan>
<tspan x="10" y="1066">- validation - validate schema.anyOf</tspan>
<tspan x="10" y="1082">- validation - replace x-swgg-inherit with schema.allOf</tspan>
<tspan x="10" y="1098">- rename operation crudFile* to file*</tspan>
<tspan x="10" y="1114">- rename operation crudUser* to user*</tspan>
<tspan x="10" y="1130">- add file lib.swagger.schema.json from http://swagger.io/v2/schema.json</tspan>
<tspan x="10" y="1146">- add extra constraints to function swgg.collectDocListRandomCreate</tspan>
<tspan x="10" y="1162">- ui - input element's valueEncoded can only be '', null, or undefined</tspan>
<tspan x="10" y="1178">- replace function swgg.schemaDereference with swgg.schemaNormalize</tspan>
<tspan x="10" y="1194"></tspan>
<tspan x="10" y="1210">2016-05-12 21:06:05 +0300</tspan>
<tspan x="10" y="1226">- npm publish 2016.4.1</tspan>
<tspan x="10" y="1242">- fix bug when a document's id is zero</tspan>
<tspan x="10" y="1258">- streamline ui</tspan>
<tspan x="10" y="1274">- remove Backbone, Handlebars, and jQuery dependencies from lib.swagger-ui.js</tspan>
<tspan x="10" y="1290">- enable multiple api endpoints with same operationId, but unique keyUnique</tspan>
<tspan x="10" y="1306">- add hooks middlewareCrudPre and middlewareCrudPost</tspan>
<tspan x="10" y="1322">- merge api crudCreateOrReplaceOne into crudCreateOrReplaceOneByKeyUnique</tspan>
<tspan x="10" y="1338">- merge api crudCreateOrUpdateOne and crudCreateOrUpdateOneByKeyUnique into crudUpdateOneByKeyUn\</tspan>
<tspan x="10" y="1354">ique</tspan>
<tspan x="10" y="1370"></tspan>
<tspan x="10" y="1386">2016-04-28 13:18:23 +0300</tspan>
<tspan x="10" y="1402">- npm publish 2016.3.1</tspan>
<tspan x="10" y="1418">- implement api GET /user/login</tspan>
<tspan x="10" y="1434">- implement api GET /user/logout</tspan>
<tspan x="10" y="1450">- add api crudUserLogout</tspan>
<tspan x="10" y="1466">- encode arrays as json-string in query-param</tspan>
<tspan x="10" y="1482">- fix crudFileGetOneByKeyUnique for serverLocal</tspan>
<tspan x="10" y="1498">- fix 0 statusCode in userLoginByPassword and userLogout api</tspan>
<tspan x="10" y="1514">- remove external dependency animate.css</tspan>
<tspan x="10" y="1530"></tspan>
<tspan x="10" y="1546">2016-04-20 01:32:39 +0300</tspan>
<tspan x="10" y="1562">- npm publish 2016.2.3</tspan>
<tspan x="10" y="1578">- split swgg.middlewareValidate into swgg.middlewareRouter and swgg.middlewareValidate</tspan>
<tspan x="10" y="1594">- merge collection BuiltinFile into collection TestModelCrud in example.js</tspan>
<tspan x="10" y="1610">- merge collection BuiltinUser into collection User in example.js</tspan>
<tspan x="10" y="1626">- add 'multipleOf' number-constraint to function swgg.collectDocRandomCreate</tspan>
<tspan x="10" y="1642">- add function swgg.collectDocListRandomCreate</tspan>
<tspan x="10" y="1658"></tspan>
<tspan x="10" y="1674">2016-04-03 18:55:13 +0800</tspan>
<tspan x="10" y="1690">- npm publish 2016.2.2</tspan>
<tspan x="10" y="1706">- implement api POST /pet/{petId}/uploadImage</tspan>
<tspan x="10" y="1722">- fix Uncaught TypeError: this.trigger is not a function</tspan>
<tspan x="10" y="1738">- fix curl example missing body</tspan>
<tspan x="10" y="1754">- add multipart/form-data ability to swgg.apiAjax</tspan>
<tspan x="10" y="1770">- add function swgg.collectDocRandomCreate to create random collectDoc</tspan>
<tspan x="10" y="1786">- merge crudFileUploadOneByForm into crudFileUploadManyByForm</tspan>
<tspan x="10" y="1802">- add function swgg.urlBaseGet</tspan>
<tspan x="10" y="1818">- cover example.js</tspan>
<tspan x="10" y="1834"></tspan>
<tspan x="10" y="1850">2016-03-19 17:17:40 +0800</tspan>
<tspan x="10" y="1866">- npm publish 2016.2.1</tspan>
<tspan x="10" y="1882">- cleanup Backbone and Handlebars in lib.swagger-ui.js</tspan>
<tspan x="10" y="1898">- fix file-upload for serverLocal</tspan>
<tspan x="10" y="1914">- add function swgg.jwtEncodedDecodeAndDecrypt, swgg.nedbReset</tspan>
<tspan x="10" y="1930">- use rolled-up asset /assets.utility2.rollup.js</tspan>
<tspan x="10" y="1946">- move request.swgg* objects to namespace request.swgg</tspan>
<tspan x="10" y="1962"></tspan>
<tspan x="10" y="1978">2016-03-15 15:32:30 +0800</tspan>
<tspan x="10" y="1994">- npm publish 2016.1.6</tspan>
<tspan x="10" y="2010">- admin-ui - fix datatables crashing when rows are empty</tspan>
<tspan x="10" y="2026">- add api crudFileGetOneByKeyUnique, crudFileUploadManyByForm, crudFileUploadOneByForm</tspan>
<tspan x="10" y="2042">- add multipart/form-data handling in swgg.middlewareBodyParse</tspan>
<tspan x="10" y="2058">- allow jsonapi's response.data to be an empty array</tspan>
<tspan x="10" y="2074">- add '_Builtin' prefix to swagger-lite's builtin swagger-definition names</tspan>
<tspan x="10" y="2090">- do not send readonly properties in swgg.apiDict clients</tspan>
<tspan x="10" y="2106">- in swgg.validateByPropertyDef, add regex pattern validation according to http://json-schema.or\</tspan>
<tspan x="10" y="2122">g/latest/json-schema-validation.html#anchor33</tspan>
<tspan x="10" y="2138">- admin-ui add x-queryRange ui</tspan>
<tspan x="10" y="2154"></tspan>
<tspan x="10" y="2170">2016-03-09 00:16:59 +0800</tspan>
<tspan x="10" y="2186">- npm publish 2016.1.5</tspan>
<tspan x="10" y="2202">- admin-ui - fix input validation bugs</tspan>
<tspan x="10" y="2218">- replace swgg.api with swgg.apiDict</tspan>
<tspan x="10" y="2234"></tspan>
<tspan x="10" y="2250">2016-03-08 15:11:20 +0800</tspan>
<tspan x="10" y="2266">- consolidate browser state-init into jsonp call stateInit</tspan>
<tspan x="10" y="2282">- admin-ui - add swagger-form validation to form-inputs</tspan>
<tspan x="10" y="2298">- admin-ui - implement date-time/dropdown/boolean form-inputs</tspan>
<tspan x="10" y="2314">- admin-ui - integrate oauth-jwt user-login</tspan>
<tspan x="10" y="2330">- admin-ui - merge all dt state-info into swgg.dt object</tspan>
<tspan x="10" y="2346">- admin-ui - keyUnique crud operations can use arbitray keys, instead of only 'id' key</tspan>
<tspan x="10" y="2362">- admin-ui - add x-title option for rendering labels for swagger params and property inputs</tspan>
<tspan x="10" y="2378">- admin-ui - crud-keyUnique operations can depend on arbitrary unique-key (previously tied to 'i\</tspan>
<tspan x="10" y="2394">d' key)</tspan>
<tspan x="10" y="2410">- rename swgg.apiUpdate to swgg.apiDictUpdate</tspan>
<tspan x="10" y="2426">- flatten swgg.cacheDict into swgg</tspan>
<tspan x="10" y="2442"></tspan>
<tspan x="10" y="2458">2016-03-03 14:57:31 +0800</tspan>
<tspan x="10" y="2474">- npm publish 2016.1.4</tspan>
<tspan x="10" y="2490">- add function swgg.isNullOrUndefined</tspan>
<tspan x="10" y="2506">- add boolean/integer/number/string schema-properties as params in crudGetManyByQuery</tspan>
<tspan x="10" y="2522">- admin-ui - implement boolean/date-time/enum input types</tspan>
<tspan x="10" y="2538">- admin-ui - implement crud CREATE</tspan>
<tspan x="10" y="2554">- allow arbitrary name for body-param in local.swgg.middlewareCrud</tspan>
<tspan x="10" y="2570">- add 'x-notRequired' options to pathObject params to override 'required' option</tspan>
<tspan x="10" y="2586">- add 'x-validateUnusedDefinition' option in swgg.validateBySwagger to ignore unused definitions</tspan>
<tspan x="10" y="2602"></tspan>
<tspan x="10" y="2618">2016-02-29 19:54:22 +0800</tspan>
<tspan x="10" y="2634">- npm publish 2016.1.3</tspan>
<tspan x="10" y="2650">- add dependency nedb-lite</tspan>
<tspan x="10" y="2666">- admin-ui - integrate serverLocal into admin-ui</tspan>
<tspan x="10" y="2682">- use jsonp to init default browser-state instead of with hard-coded template</tspan>
<tspan x="10" y="2698">- split index.js into index.js and lib.admin-ui.js</tspan>
<tspan x="10" y="2714">- admin-ui - hook utility2.assert and utility2.onErrorDefault with bootstrap alert;</tspan>
<tspan x="10" y="2730">- admin-ui - add crud UPDATE</tspan>
<tspan x="10" y="2746">- admin-ui - show swagger-property-type in thead / tfoot / form input</tspan>
<tspan x="10" y="2762">- add keyAlias param in operationId</tspan>
<tspan x="10" y="2778">- swgg.apiUpdate will now error-log schema-validation-errors instead of throwing them</tspan>
<tspan x="10" y="2794">- add file-server</tspan>
<tspan x="10" y="2810">- add admin-ui crud DELETE</tspan>
<tspan x="10" y="2826"></tspan>
<tspan x="10" y="2842">2016-02-22 11:51:07 +0800</tspan>
<tspan x="10" y="2858">- npm publish 2016.1.2</tspan>
<tspan x="10" y="2874">- work-in-progress on experimental, swagger-based, admin-ui</tspan>
<tspan x="10" y="2890">- add query macro for crudGetManyByQuery</tspan>
<tspan x="10" y="2906">- add crud-tests for petstore api</tspan>
<tspan x="10" y="2922">- move static assets to /external dir, which will be fetched during postinstall</tspan>
<tspan x="10" y="2938"></tspan>
<tspan x="10" y="2954">2016-02-14 21:43:25 +0800</tspan>
<tspan x="10" y="2970">- npm publish 2016.1.1</tspan>
<tspan x="10" y="2986">- implement petstore backend with nedb</tspan>
<tspan x="10" y="3002">- remove swagger-ui-lite dependency</tspan>
<tspan x="10" y="3018">- fix missing createdAt field in nedb update-replace</tspan>
<tspan x="10" y="3034">- add default-crud-api crudCreateOrReplaceMany, crudCreateOrUpdateOne, and crudCreateOrUpdateOne\</tspan>
<tspan x="10" y="3050">ByKeyUnique</tspan>
<tspan x="10" y="3066">- keep internal nedb _id separate from mongodb id</tspan>
<tspan x="10" y="3082">- enable integer id's in default crud api</tspan>
<tspan x="10" y="3098"></tspan>
<tspan x="10" y="3114">2016-01-16 01:40:32 +0800</tspan>
<tspan x="10" y="3130">- npm publish 2015.12.6</tspan>
<tspan x="10" y="3146">- rename assets/* to assets.*</tspan>
<tspan x="10" y="3162"></tspan>
<tspan x="10" y="3178">2016-01-11 17:16:43 +0800</tspan>
<tspan x="10" y="3194">- npm publish 2015.12.5</tspan>
<tspan x="10" y="3210">- add nedb backend</tspan>
<tspan x="10" y="3226">- rename swagger-ui.rollup.js to lib.swagger-ui.js</tspan>
<tspan x="10" y="3242">- add file index.css and rename asset swagger-ui.rollup.css to swagger-lite.css</tspan>
<tspan x="10" y="3258"></tspan>
<tspan x="10" y="3274">2016-01-10 21:52:32 +0800</tspan>
<tspan x="10" y="3290">- npm publish 2015.12.4</tspan>
<tspan x="10" y="3306">- shrink file swagger-ui.rollup.js</tspan>
<tspan x="10" y="3322">- add file swagger-ui.rollup.js</tspan>
<tspan x="10" y="3338">- add asset /swagger-lite.html</tspan>
<tspan x="10" y="3354"></tspan>
<tspan x="10" y="3370">2016-01-06 15:44:05 +0800</tspan>
<tspan x="10" y="3386">- npm publish 2015.12.3</tspan>
<tspan x="10" y="3402">- fix ui-wiggle for client-side validation error</tspan>
<tspan x="10" y="3418"></tspan>
<tspan x="10" y="3434">2016-01-05 22:51:11 +0800</tspan>
<tspan x="10" y="3450">- npm publish 2015.12.2</tspan>
<tspan x="10" y="3466">- add initial loading icon</tspan>
<tspan x="10" y="3482"></tspan>
<tspan x="10" y="3498">2016-01-04 02:21:43 +0800</tspan>
<tspan x="10" y="3514">- npm publish 2015.12.1</tspan>
<tspan x="10" y="3530">- migrate live-test-server from heroku to github, with browser emulation of server</tspan>
<tspan x="10" y="3546">- revamp local._OperationPrototypeExecute to mock ajax request to browser-emulated server</tspan>
<tspan x="10" y="3562">- remove ./Procfile</tspan>
<tspan x="10" y="3578"></tspan>
<tspan x="10" y="3594">2015-12-30 04:13:51 +0800</tspan>
<tspan x="10" y="3610">- npm publish 2015.11.10</tspan>
<tspan x="10" y="3626">- swagger-hack - resolve %2F in hashtag</tspan>
<tspan x="10" y="3642"></tspan>
<tspan x="10" y="3658">2015-12-24 15:42:05 +0800</tspan>
<tspan x="10" y="3674">- npm publish 2015.11.9</tspan>
<tspan x="10" y="3690">- add enum validation</tspan>
<tspan x="10" y="3706"></tspan>
<tspan x="10" y="3722">2015-12-15 03:50:39 +0800</tspan>
<tspan x="10" y="3738">- npm publish 2015.11.8</tspan>
<tspan x="10" y="3754">- move most of node js-env code to shared js-env</tspan>
<tspan x="10" y="3770">- working nedb interface</tspan>
<tspan x="10" y="3786">- deployed heroku test-server</tspan>
<tspan x="10" y="3802">- wiggle frontend input during validation error</tspan>
<tspan x="10" y="3818">- update to uglified swagger-ui-lite</tspan>
<tspan x="10" y="3834">- remove #/definitions/JsonapiResource and #/definitions/JsonapiError</tspan>
<tspan x="10" y="3850"></tspan>
<tspan x="10" y="3866">2015-12-04 21:21:07 +0800</tspan>
<tspan x="10" y="3882">- npm publish 2015.11.7</tspan>
<tspan x="10" y="3898">- add function swgg.serverRespondJsonapi</tspan>
<tspan x="10" y="3914">- remove #/definitions/Object and #/definitions/Undefined</tspan>
<tspan x="10" y="3930">- add _schemaName to pathObject</tspan>
<tspan x="10" y="3946"></tspan>
<tspan x="10" y="3962">2015-11-26 03:50:55 +0800</tspan>
<tspan x="10" y="3978">- npm publish 2015.11.6</tspan>
<tspan x="10" y="3994">- rename crudApi to pathObjectDefault</tspan>
<tspan x="10" y="4010">- rename uniqueKey to keyUnique</tspan>
<tspan x="10" y="4026">- rename methodPath to pathObject</tspan>
<tspan x="10" y="4042">- rename swlt to swgg</tspan>
<tspan x="10" y="4058">- rename tagName to pathPrefix</tspan>
<tspan x="10" y="4074"></tspan>
<tspan x="10" y="4090">2015-11-25 15:42:20 +0800</tspan>
<tspan x="10" y="4106">- npm publish 2015.11.4</tspan>
<tspan x="10" y="4122">- update to swagger-ui-lite @ 2015.11.4</tspan>
<tspan x="10" y="4138"></tspan>
<tspan x="10" y="4154">2015-11-25 09:14:42 +0800</tspan>
<tspan x="10" y="4170">- npm publish 2015.11.3</tspan>
<tspan x="10" y="4186">- add auto-generation of crud feature</tspan>
<tspan x="10" y="4202"></tspan>
<tspan x="10" y="4218">2015-11-24 15:13:41 +0800</tspan>
<tspan x="10" y="4234">- npm publish 2015.11.2</tspan>
<tspan x="10" y="4250">- working swagger validation tests</tspan>
<tspan x="10" y="4266">- remove mongodb dependency</tspan>
<tspan x="10" y="4282"></tspan>
<tspan x="10" y="4298">2015-11-22 23:47:45 +0800</tspan>
<tspan x="10" y="4314">- npm publish 2015.11.1</tspan>
<tspan x="10" y="4330">- initial creation derived from swagger-mongodb</tspan>
<tspan x="10" y="4346"></tspan>
<tspan x="10" y="4362">2014-03-26 02:31:50 +0700</tspan>
<tspan x="10" y="4378">add blank README.md</tspan>
</text>
</svg>
