<svg height="4318" width="720" xmlns="http://www.w3.org/2000/svg">
<rect height="4318" fill="#555" width="720"></rect>
<text fill="#7f7" font-family="Courier New" font-size="12" xml:space="preserve">
<tspan x="10" y="26">2016-10-13 12:52:24 +0800</tspan>
<tspan x="10" y="42">methodize dbTableDrop</tspan>
<tspan x="10" y="58"></tspan>
<tspan x="10" y="74">2016-10-13 01:37:21 +0800</tspan>
<tspan x="10" y="90">fix npm test</tspan>
<tspan x="10" y="106"></tspan>
<tspan x="10" y="122">2016-10-13 01:01:20 +0800</tspan>
<tspan x="10" y="138">- add 'hide internal test' button to demo</tspan>
<tspan x="10" y="154"></tspan>
<tspan x="10" y="170">2016-10-12 18:22:05 +0800</tspan>
<tspan x="10" y="186">cleanup</tspan>
<tspan x="10" y="202"></tspan>
<tspan x="10" y="218">2016-10-12 16:32:16 +0800</tspan>
<tspan x="10" y="234">remove db* from utility2</tspan>
<tspan x="10" y="250"></tspan>
<tspan x="10" y="266">2016-10-11 23:13:42 +0800</tspan>
<tspan x="10" y="282">cull ensureIndex</tspan>
<tspan x="10" y="298"></tspan>
<tspan x="10" y="314">2016-10-11 22:59:22 +0800</tspan>
<tspan x="10" y="330">countMany</tspan>
<tspan x="10" y="346"></tspan>
<tspan x="10" y="362">2016-10-11 20:39:38 +0800</tspan>
<tspan x="10" y="378">removeOne</tspan>
<tspan x="10" y="394"></tspan>
<tspan x="10" y="410">2016-10-11 20:22:44 +0800</tspan>
<tspan x="10" y="426">rename delete to remove</tspan>
<tspan x="10" y="442"></tspan>
<tspan x="10" y="458">2016-10-11 20:16:08 +0800</tspan>
<tspan x="10" y="474">rename delete to remove</tspan>
<tspan x="10" y="490"></tspan>
<tspan x="10" y="506">2016-10-11 17:40:50 +0800</tspan>
<tspan x="10" y="522">rename Nedb to nedb (all lowercase)</tspan>
<tspan x="10" y="538"></tspan>
<tspan x="10" y="554">2016-10-11 16:57:40 +0800</tspan>
<tspan x="10" y="570">delegate auto-create unique-key to nedb</tspan>
<tspan x="10" y="586"></tspan>
<tspan x="10" y="602">2016-10-11 15:37:18 +0800</tspan>
<tspan x="10" y="618">update ensureIndexList</tspan>
<tspan x="10" y="634"></tspan>
<tspan x="10" y="650">2016-10-11 02:31:24 +0800</tspan>
<tspan x="10" y="666">update nedb</tspan>
<tspan x="10" y="682"></tspan>
<tspan x="10" y="698">2016-10-11 00:24:51 +0800</tspan>
<tspan x="10" y="714">fix npm test</tspan>
<tspan x="10" y="730"></tspan>
<tspan x="10" y="746">2016-10-11 00:22:16 +0800</tspan>
<tspan x="10" y="762">fix npm test</tspan>
<tspan x="10" y="778"></tspan>
<tspan x="10" y="794">2016-10-10 23:03:22 +0800</tspan>
<tspan x="10" y="810">cull AvlTree.prototype</tspan>
<tspan x="10" y="826"></tspan>
<tspan x="10" y="842">2016-10-10 21:24:25 +0800</tspan>
<tspan x="10" y="858">improve test-coverage</tspan>
<tspan x="10" y="874"></tspan>
<tspan x="10" y="890">2016-10-10 11:59:50 +0800</tspan>
<tspan x="10" y="906">cull callback</tspan>
<tspan x="10" y="922"></tspan>
<tspan x="10" y="938">2016-10-10 07:29:59 +0800</tspan>
<tspan x="10" y="954">touch</tspan>
<tspan x="10" y="970"></tspan>
<tspan x="10" y="986">2016-10-10 02:23:21 +0800</tspan>
<tspan x="10" y="1002">update nedb</tspan>
<tspan x="10" y="1018"></tspan>
<tspan x="10" y="1034">2016-10-09 23:27:35 +0800</tspan>
<tspan x="10" y="1050">revamp onNext</tspan>
<tspan x="10" y="1066"></tspan>
<tspan x="10" y="1082">2016-10-09 23:24:16 +0800</tspan>
<tspan x="10" y="1098">revamp onNext</tspan>
<tspan x="10" y="1114"></tspan>
<tspan x="10" y="1130">2016-10-09 23:21:12 +0800</tspan>
<tspan x="10" y="1146">streamline tests</tspan>
<tspan x="10" y="1162"></tspan>
<tspan x="10" y="1178">2016-10-09 23:15:49 +0800</tspan>
<tspan x="10" y="1194">streamline tests</tspan>
<tspan x="10" y="1210"></tspan>
<tspan x="10" y="1226">2016-10-09 23:11:55 +0800</tspan>
<tspan x="10" y="1242">- streamline tests</tspan>
<tspan x="10" y="1258"></tspan>
<tspan x="10" y="1274">2016-10-02 12:04:31 +0800</tspan>
<tspan x="10" y="1290">- npm publish 2016.9.1</tspan>
<tspan x="10" y="1306">- update utility2 dependency</tspan>
<tspan x="10" y="1322"></tspan>
<tspan x="10" y="1338">2016-08-27 11:05:16 +0800</tspan>
<tspan x="10" y="1354">- npm publish 2016.8.1</tspan>
<tspan x="10" y="1370">- allow file export / import of nedb-database</tspan>
<tspan x="10" y="1386">- migrate nedb-api from swagger-lite to utility2</tspan>
<tspan x="10" y="1402">- rename collectDoc to dbRow and collection to dbTable</tspan>
<tspan x="10" y="1418"></tspan>
<tspan x="10" y="1434">2016-08-07 22:39:06 +0200</tspan>
<tspan x="10" y="1450">- npm publish 2016.7.2</tspan>
<tspan x="10" y="1466">- deploy standalone-app to heroku</tspan>
<tspan x="10" y="1482">- rename local.utility2.middlewareJsonpStateGet to local.utility2.middlewareJsonpStateInit</tspan>
<tspan x="10" y="1498"></tspan>
<tspan x="10" y="1514">2016-07-31 15:02:39 +0200</tspan>
<tspan x="10" y="1530">- npm publish 2016.7.1</tspan>
<tspan x="10" y="1546">- replace lib bcrypt and lib cryptojs with lib sjcl</tspan>
<tspan x="10" y="1562"></tspan>
<tspan x="10" y="1578">2016-07-01 03:17:59 +0200</tspan>
<tspan x="10" y="1594">- npm publish 2016.5.4</tspan>
<tspan x="10" y="1610">- fix internal tests for heroku backend</tspan>
<tspan x="10" y="1626"></tspan>
<tspan x="10" y="1642">2016-06-15 17:19:02 +0300</tspan>
<tspan x="10" y="1658">- npm publish 2016.5.2</tspan>
<tspan x="10" y="1674">- deploy standalone app to heroku test-server</tspan>
<tspan x="10" y="1690">- remove nedb-lite dependency</tspan>
<tspan x="10" y="1706">- add minified asset assets.app.min.js</tspan>
<tspan x="10" y="1722">- add 'run internal test' button in webpage</tspan>
<tspan x="10" y="1738">- add env var npm_config_mode_backend to disable utility2.serverLocalUrlTest</tspan>
<tspan x="10" y="1754"></tspan>
<tspan x="10" y="1770">2016-06-12 03:58:24 +0300</tspan>
<tspan x="10" y="1786">- npm publish 2016.5.2</tspan>
<tspan x="10" y="1802">- add standalone-app download-link in test-page</tspan>
<tspan x="10" y="1818">- ui - add button to reset nedb database</tspan>
<tspan x="10" y="1834"></tspan>
<tspan x="10" y="1850">2016-06-08 19:00:37 +0300</tspan>
<tspan x="10" y="1866">- npm publish 2016.5.1</tspan>
<tspan x="10" y="1882">- merge admin-ui into swagger-ui</tspan>
<tspan x="10" y="1898">- ui - re-implement reload feature</tspan>
<tspan x="10" y="1914">- move all swagger-backend-config into top-level swagger-property 'x-swgg-apiDict'</tspan>
<tspan x="10" y="1930">- remove unused postinstall script</tspan>
<tspan x="10" y="1946"></tspan>
<tspan x="10" y="1962">2016-05-30 15:00:02 +0300</tspan>
<tspan x="10" y="1978">- npm publish 2016.4.3</tspan>
<tspan x="10" y="1994">- datatable - add datatable resource-view</tspan>
<tspan x="10" y="2010">- datatable - add pagination</tspan>
<tspan x="10" y="2026">- datatable - add row deletion</tspan>
<tspan x="10" y="2042"></tspan>
<tspan x="10" y="2058">2016-05-20 17:44:04 +0300</tspan>
<tspan x="10" y="2074">- npm publish 2016.4.2</tspan>
<tspan x="10" y="2090">- replace swagger-tools dependency with function swgg.validateBySwagger</tspan>
<tspan x="10" y="2106">- validation - validate schema.default</tspan>
<tspan x="10" y="2122">- validation - validate schema.anyOf</tspan>
<tspan x="10" y="2138">- validation - replace x-swgg-inherit with schema.allOf</tspan>
<tspan x="10" y="2154">- rename operation crudFile* to file*</tspan>
<tspan x="10" y="2170">- rename operation crudUser* to user*</tspan>
<tspan x="10" y="2186">- add file lib.swagger.schema.json from http://swagger.io/v2/schema.json</tspan>
<tspan x="10" y="2202">- add extra constraints to function swgg.collectDocListRandomCreate</tspan>
<tspan x="10" y="2218">- ui - input element's valueEncoded can only be '', null, or undefined</tspan>
<tspan x="10" y="2234">- replace function swgg.schemaDereference with swgg.schemaNormalize</tspan>
<tspan x="10" y="2250"></tspan>
<tspan x="10" y="2266">2016-05-12 21:06:05 +0300</tspan>
<tspan x="10" y="2282">- npm publish 2016.4.1</tspan>
<tspan x="10" y="2298">- fix bug when a document's id is zero</tspan>
<tspan x="10" y="2314">- streamline ui</tspan>
<tspan x="10" y="2330">- remove Backbone, Handlebars, and jQuery dependencies from lib.swagger-ui.js</tspan>
<tspan x="10" y="2346">- enable multiple api endpoints with same operationId, but unique keyUnique</tspan>
<tspan x="10" y="2362">- add hooks middlewareCrudPre and middlewareCrudPost</tspan>
<tspan x="10" y="2378">- merge api crudCreateOrReplaceOne into crudCreateOrReplaceOneByKeyUnique</tspan>
<tspan x="10" y="2394">- merge api crudCreateOrUpdateOne and crudCreateOrUpdateOneByKeyUnique into crudUpdateOneByKeyUn\</tspan>
<tspan x="10" y="2410">ique</tspan>
<tspan x="10" y="2426"></tspan>
<tspan x="10" y="2442">2016-04-28 13:18:23 +0300</tspan>
<tspan x="10" y="2458">- npm publish 2016.3.1</tspan>
<tspan x="10" y="2474">- implement api GET /user/login</tspan>
<tspan x="10" y="2490">- implement api GET /user/logout</tspan>
<tspan x="10" y="2506">- add api crudUserLogout</tspan>
<tspan x="10" y="2522">- encode arrays as json-string in query-param</tspan>
<tspan x="10" y="2538">- fix crudFileGetOneByKeyUnique for serverLocal</tspan>
<tspan x="10" y="2554">- fix 0 statusCode in userLoginByPassword and userLogout api</tspan>
<tspan x="10" y="2570">- remove external dependency animate.css</tspan>
<tspan x="10" y="2586"></tspan>
<tspan x="10" y="2602">2016-04-20 01:32:39 +0300</tspan>
<tspan x="10" y="2618">- npm publish 2016.2.3</tspan>
<tspan x="10" y="2634">- split swgg.middlewareValidate into swgg.middlewareRouter and swgg.middlewareValidate</tspan>
<tspan x="10" y="2650">- merge collection BuiltinFile into collection TestModelCrud in example.js</tspan>
<tspan x="10" y="2666">- merge collection BuiltinUser into collection User in example.js</tspan>
<tspan x="10" y="2682">- add 'multipleOf' number-constraint to function swgg.collectDocRandomCreate</tspan>
<tspan x="10" y="2698">- add function swgg.collectDocListRandomCreate</tspan>
<tspan x="10" y="2714"></tspan>
<tspan x="10" y="2730">2016-04-03 18:55:13 +0800</tspan>
<tspan x="10" y="2746">- npm publish 2016.2.2</tspan>
<tspan x="10" y="2762">- implement api POST /pet/{petId}/uploadImage</tspan>
<tspan x="10" y="2778">- fix Uncaught TypeError: this.trigger is not a function</tspan>
<tspan x="10" y="2794">- fix curl example missing body</tspan>
<tspan x="10" y="2810">- add multipart/form-data ability to swgg.apiAjax</tspan>
<tspan x="10" y="2826">- add function swgg.collectDocRandomCreate to create random collectDoc</tspan>
<tspan x="10" y="2842">- merge crudFileUploadOneByForm into crudFileUploadManyByForm</tspan>
<tspan x="10" y="2858">- add function swgg.urlBaseGet</tspan>
<tspan x="10" y="2874">- cover example.js</tspan>
<tspan x="10" y="2890"></tspan>
<tspan x="10" y="2906">2016-03-19 17:17:40 +0800</tspan>
<tspan x="10" y="2922">- npm publish 2016.2.1</tspan>
<tspan x="10" y="2938">- cleanup Backbone and Handlebars in lib.swagger-ui.js</tspan>
<tspan x="10" y="2954">- fix file-upload for serverLocal</tspan>
<tspan x="10" y="2970">- add function swgg.jwtEncodedDecodeAndDecrypt, swgg.nedbReset</tspan>
<tspan x="10" y="2986">- use rolled-up asset /assets.utility2.rollup.js</tspan>
<tspan x="10" y="3002">- move request.swgg* objects to namespace request.swgg</tspan>
<tspan x="10" y="3018"></tspan>
<tspan x="10" y="3034">2016-03-15 15:32:30 +0800</tspan>
<tspan x="10" y="3050">- npm publish 2016.1.6</tspan>
<tspan x="10" y="3066">- admin-ui - fix datatables crashing when rows are empty</tspan>
<tspan x="10" y="3082">- add api crudFileGetOneByKeyUnique, crudFileUploadManyByForm, crudFileUploadOneByForm</tspan>
<tspan x="10" y="3098">- add multipart/form-data handling in swgg.middlewareBodyParse</tspan>
<tspan x="10" y="3114">- allow jsonapi's response.data to be an empty array</tspan>
<tspan x="10" y="3130">- add '_Builtin' prefix to swagger-lite's builtin swagger-definition names</tspan>
<tspan x="10" y="3146">- do not send readonly properties in swgg.apiDict clients</tspan>
<tspan x="10" y="3162">- in swgg.validateByPropertyDef, add regex pattern validation according to http://json-schema.or\</tspan>
<tspan x="10" y="3178">g/latest/json-schema-validation.html#anchor33</tspan>
<tspan x="10" y="3194">- admin-ui add x-queryRange ui</tspan>
<tspan x="10" y="3210"></tspan>
<tspan x="10" y="3226">2016-03-09 00:16:59 +0800</tspan>
<tspan x="10" y="3242">- npm publish 2016.1.5</tspan>
<tspan x="10" y="3258">- admin-ui - fix input validation bugs</tspan>
<tspan x="10" y="3274">- replace swgg.api with swgg.apiDict</tspan>
<tspan x="10" y="3290"></tspan>
<tspan x="10" y="3306">2016-03-08 15:11:20 +0800</tspan>
<tspan x="10" y="3322">- consolidate browser state-init into jsonp call stateInit</tspan>
<tspan x="10" y="3338">- admin-ui - add swagger-form validation to form-inputs</tspan>
<tspan x="10" y="3354">- admin-ui - implement date-time/dropdown/boolean form-inputs</tspan>
<tspan x="10" y="3370">- admin-ui - integrate oauth-jwt user-login</tspan>
<tspan x="10" y="3386">- admin-ui - merge all dt state-info into swgg.dt object</tspan>
<tspan x="10" y="3402">- admin-ui - keyUnique crud operations can use arbitray keys, instead of only 'id' key</tspan>
<tspan x="10" y="3418">- admin-ui - add x-title option for rendering labels for swagger params and property inputs</tspan>
<tspan x="10" y="3434">- admin-ui - crud-keyUnique operations can depend on arbitrary unique-key (previously tied to 'i\</tspan>
<tspan x="10" y="3450">d' key)</tspan>
<tspan x="10" y="3466">- rename swgg.apiUpdate to swgg.apiDictUpdate</tspan>
<tspan x="10" y="3482">- flatten swgg.cacheDict into swgg</tspan>
<tspan x="10" y="3498"></tspan>
<tspan x="10" y="3514">2016-03-03 14:57:31 +0800</tspan>
<tspan x="10" y="3530">- npm publish 2016.1.4</tspan>
<tspan x="10" y="3546">- add function swgg.isNullOrUndefined</tspan>
<tspan x="10" y="3562">- add boolean/integer/number/string schema-properties as params in crudGetManyByQuery</tspan>
<tspan x="10" y="3578">- admin-ui - implement boolean/date-time/enum input types</tspan>
<tspan x="10" y="3594">- admin-ui - implement crud CREATE</tspan>
<tspan x="10" y="3610">- allow arbitrary name for body-param in local.swgg.middlewareCrud</tspan>
<tspan x="10" y="3626">- add 'x-notRequired' options to pathObject params to override 'required' option</tspan>
<tspan x="10" y="3642">- add 'x-validateUnusedDefinition' option in swgg.validateBySwagger to ignore unused definitions</tspan>
<tspan x="10" y="3658"></tspan>
<tspan x="10" y="3674">2016-02-29 19:54:22 +0800</tspan>
<tspan x="10" y="3690">- npm publish 2016.1.3</tspan>
<tspan x="10" y="3706">- add dependency nedb-lite</tspan>
<tspan x="10" y="3722">- admin-ui - integrate serverLocal into admin-ui</tspan>
<tspan x="10" y="3738">- use jsonp to init default browser-state instead of with hard-coded template</tspan>
<tspan x="10" y="3754">- split index.js into index.js and lib.admin-ui.js</tspan>
<tspan x="10" y="3770">- admin-ui - hook utility2.assert and utility2.onErrorDefault with bootstrap alert;</tspan>
<tspan x="10" y="3786">- admin-ui - add crud UPDATE</tspan>
<tspan x="10" y="3802">- admin-ui - show swagger-property-type in thead / tfoot / form input</tspan>
<tspan x="10" y="3818">- add keyAlias param in operationId</tspan>
<tspan x="10" y="3834">- swgg.apiUpdate will now error-log schema-validation-errors instead of throwing them</tspan>
<tspan x="10" y="3850">- add file-server</tspan>
<tspan x="10" y="3866">- add admin-ui crud DELETE</tspan>
<tspan x="10" y="3882"></tspan>
<tspan x="10" y="3898">2016-02-22 11:51:07 +0800</tspan>
<tspan x="10" y="3914">- npm publish 2016.1.2</tspan>
<tspan x="10" y="3930">- work-in-progress on experimental, swagger-based, admin-ui</tspan>
<tspan x="10" y="3946">- add query macro for crudGetManyByQuery</tspan>
<tspan x="10" y="3962">- add crud-tests for petstore api</tspan>
<tspan x="10" y="3978">- move static assets to /external dir, which will be fetched during postinstall</tspan>
<tspan x="10" y="3994"></tspan>
<tspan x="10" y="4010">2016-02-14 21:43:25 +0800</tspan>
<tspan x="10" y="4026">- npm publish 2016.1.1</tspan>
<tspan x="10" y="4042">- implement petstore backend with nedb</tspan>
<tspan x="10" y="4058">- remove swagger-ui-lite dependency</tspan>
<tspan x="10" y="4074">- fix missing createdAt field in nedb update-replace</tspan>
<tspan x="10" y="4090">- add default-crud-api crudCreateOrReplaceMany, crudCreateOrUpdateOne, and crudCreateOrUpdateOne\</tspan>
<tspan x="10" y="4106">ByKeyUnique</tspan>
<tspan x="10" y="4122">- keep internal nedb _id separate from mongodb id</tspan>
<tspan x="10" y="4138">- enable integer id's in default crud api</tspan>
<tspan x="10" y="4154"></tspan>
<tspan x="10" y="4170">2016-01-16 01:40:32 +0800</tspan>
<tspan x="10" y="4186">- npm publish 2015.12.6</tspan>
<tspan x="10" y="4202">- rename assets/* to assets.*</tspan>
<tspan x="10" y="4218"></tspan>
<tspan x="10" y="4234">2016-01-11 17:16:43 +0800</tspan>
<tspan x="10" y="4250">- npm publish 2015.12.5</tspan>
<tspan x="10" y="4266">- add nedb backend</tspan>
<tspan x="10" y="4282">- rename swagger-ui.rollup.js to lib.swagger-ui.js</tspan>
<tspan x="10" y="4298">- add file index.css and rename asset swagger-ui.rollup.css to swagger-lite.css</tspan>
</text>
</svg>
