<svg height="910" width="720" xmlns="http://www.w3.org/2000/svg">
<rect height="910" fill="#555" width="720"></rect>
<text fill="#7f7" font-family="Courier New" font-size="12" xml:space="preserve">
<tspan x="10" y="26"></tspan>
<tspan x="10" y="42">[MODE_BUILD=testExampleJs] - 2016-10-13T15:18:35Z - testing example.js</tspan>
<tspan x="10" y="58"></tspan>
<tspan x="10" y="74">npm install "kaizhu256/node-swagger-lite#alpha" &amp;&amp; export PORT=8081 &amp;&amp; node example.js</tspan>
<tspan x="10" y="90"></tspan>
<tspan x="10" y="106">/tmp/app</tspan>
<tspan x="10" y="122">└─┬ swagger-lite@2016.9.2  (git://github.com/kaizhu256/node-swagger-lite.git#da31c29f58df56dcf9b\</tspan>
<tspan x="10" y="138">96bf901d4c31ce48a2e1a)</tspan>
<tspan x="10" y="154">  └── utility2@2016.9.2  (git://github.com/kaizhu256/node-utility2.git#5d267d982ed518d65eab1982c\</tspan>
<tspan x="10" y="170">2d45725be5df51f)</tspan>
<tspan x="10" y="186"></tspan>
<tspan x="10" y="202">npm WARN enoent ENOENT: no such file or directory, open '/tmp/app/package.json'</tspan>
<tspan x="10" y="218">npm WARN app No description</tspan>
<tspan x="10" y="234">npm WARN app No repository field.</tspan>
<tspan x="10" y="250">npm WARN app No README data</tspan>
<tspan x="10" y="266">npm WARN app No license field.</tspan>
<tspan x="10" y="282">server listening on http-port 8081</tspan>
<tspan x="10" y="298"></tspan>
<tspan x="10" y="314">[MODE_BUILD=testExampleJs] - 2016-10-13T15:18:45Z - electron.screenCapture - http://localhost:80\</tspan>
<tspan x="10" y="330">81</tspan>
<tspan x="10" y="346"></tspan>
<tspan x="10" y="362"></tspan>
<tspan x="10" y="378">browserTest - created electron entry-page /home/travis/build/kaizhu256/node-swagger-lite/tmp/ele\</tspan>
<tspan x="10" y="394">ctron.157be9fc-a3f7-44cf-b471-8094f3038cd9.html</tspan>
<tspan x="10" y="410"></tspan>
<tspan x="10" y="426">[3418:1013/151845:ERROR:browser_main_loop.cc(231)] Running without the SUID sandbox! See https:/\</tspan>
<tspan x="10" y="442">/chromium.googlesource.com/chromium/src/+/master/docs/linux_suid_sandbox_development.md for more\</tspan>
<tspan x="10" y="458"> information on developing with the sandbox on.</tspan>
<tspan x="10" y="474">Xlib:  extension "RANDR" missing on display ":99.0".</tspan>
<tspan x="10" y="490">[3418:1013/151846:WARNING:host_discardable_shared_memory_manager.cc(132)] Less than 64MB of free\</tspan>
<tspan x="10" y="506"> space in temporary directory for shared memory files: 63</tspan>
<tspan x="10" y="522">Xlib:  extension "RANDR" missing on display ":99.0".</tspan>
<tspan x="10" y="538">[3418:1013/151846:ERROR:bus.cc(432)] Failed to connect to the bus: Failed to connect to socket /\</tspan>
<tspan x="10" y="554">var/run/dbus/system_bus_socket: Connection refused</tspan>
<tspan x="10" y="570">[3418:1013/151846:WARNING:audio_manager.cc(314)] Multiple instances of AudioManager detected</tspan>
<tspan x="10" y="586">[3418:1013/151846:WARNING:audio_manager.cc(275)] Multiple instances of AudioManager detected</tspan>
<tspan x="10" y="602">[3488:1013/151846:ERROR:sandbox_linux.cc(343)] InitializeSandbox() called with multiple threads \</tspan>
<tspan x="10" y="618">in process gpu-process. </tspan>
<tspan x="10" y="634">[3418:1013/151846:ERROR:browser_gpu_channel_host_factory.cc(131)] Failed to create channel.</tspan>
<tspan x="10" y="650"></tspan>
<tspan x="10" y="666">browserTest - opened url http://localhost:8081</tspan>
<tspan x="10" y="682"></tspan>
<tspan x="10" y="698">[3418:1013/151847:ERROR:backend_impl.cc(1032)] Critical error found -8</tspan>
<tspan x="10" y="714">[3418:1013/151847:WARNING:storage_block-inl.h(131)] Failed data load.</tspan>
<tspan x="10" y="730">[3418:1013/151847:ERROR:entry_impl.cc(1035)] No file for a001000c</tspan>
<tspan x="10" y="746">[3418:1013/151847:WARNING:storage_block-inl.h(131)] Failed data load.</tspan>
<tspan x="10" y="762">[3418:1013/151847:INFO:CONSOLE(205)] "server listening on http-port 8081", source: file:///home/\</tspan>
<tspan x="10" y="778">travis/build/kaizhu256/node-swagger-lite/tmp/electron.157be9fc-a3f7-44cf-b471-8094f3038cd9.html \</tspan>
<tspan x="10" y="794">(205)</tspan>
<tspan x="10" y="810"></tspan>
<tspan x="10" y="826">browserTest - created screen-capture file:///home/travis/build/kaizhu256/node-swagger-lite/tmp/b\</tspan>
<tspan x="10" y="842">uild/screen-capture.testExampleJs.browser..png</tspan>
<tspan x="10" y="858"></tspan>
<tspan x="10" y="874"></tspan>
<tspan x="10" y="890">browserTest - exit-code 0 - http://localhost:8081</tspan>
</text>
</svg>
